<svg xmlns="http://www.w3.org/2000/svg" xmlns:xlink="http://www.w3.org/1999/xlink" width="719.6" height="471.4" viewBox="40.5 -765.4 359.8 235.7"><title>Sheet_1</title><style type="text/css">
path, polyline, polygon {stroke-linejoin:round;}
rect, circle, ellipse, polyline, line, polygon, path {shape-rendering:crispEdges;}
</style>
<rect x="40.5" y="-765.4" width="359.8" height="235.7" fill="#FFFFFF" stroke="none"/><g xmlns="http://www.w3.org/2000/svg" id="g1" c_spiceCmd="null" c_para="Prefix Start`1" importFlag="" c_portOfADImportHack="" c_transformList=""><g c_origin="215,-595" c_para="package`INA219`BOM_Supplier`LCSC`BOM_Manufacturer`BOOMELE`BOM_Manufacturer Part`Header-Male-2.54_1x6`BOM_Supplier Part`C37208`Contributor`alehramanovich`spicePre`U`spiceSymbolName`INA219`" c_partid="part_lib_gge752b393dda5b75cb" id="gge752b393dda5b75cb" locked="0" c_shapetype="group" c_etype="pinpart" puuid="b25ddaa639d84da4b86d0b023a223bac" uuid="8d4e09a66c6d47fbbeaff2ed165b180e" convert_to_pcb="yes" add_into_bom="yes" c_rotation="270"><g c_partid="part_annotation" id="gge78"   c_shapetype="group"><text c_note="note_name" x="204.4296875" y="-541.765625" fill="#000080" font-family="Arial" font-size="7pt" font-weight="" font-style="" dominant-baseline="" text-anchor="start"  >INA219</text></g><g c_partid="part_annotation" id="gge80"   c_shapetype="group"><text c_note="note_pre" x="214.03125" y="-551.765625" fill="#000080" font-family="Arial" font-size="7pt" font-weight="" font-style="" dominant-baseline="" text-anchor="start"  >U1</text></g><rect id="gge82" locked="0" c_etype="" x="180" y="-600" rx="2" ry="2" width="70" height="40" stroke="#880000" stroke-width="1" fill="none"   /><g c_partid="part_pin" c_etype="pinpart"  c_show="show"  c_elec="1" c_spicepin="1" c_origin="240,-610" id="gge83" locked="0" c_rotation="90"><text x="243" y="-595" font-family="Verdana" font-size="7pt" fill="#000000" text-anchor="end" c_pinname="VCC"  transform="rotate(270,243,-595)" >VCC</text><text x="239" y="-600" font-family="Verdana" font-size="7pt" fill="#000000" text-anchor="start" c_pinnumber="1" display="none" transform="rotate(270,239,-600)" >1</text><circle c_pindot="true" class="pindot" cx="240" cy="-610" r="2" fill="none" stroke="none" /><path d="M 240 -610 v 10" fill="none" stroke="#000000" stroke-width="1"/><circle cx="240" cy="-603" r="3" stroke="#000000" fill="none" stroke-width="1" display="none" /><path d="M 237 -600 L 240 -597 L 243 -600" fill="none" stroke="#000000" stroke-width="1"  display="none" /></g><g c_partid="part_pin" c_etype="pinpart"  c_show="show"  c_elec="1" c_spicepin="2" c_origin="230,-610" id="gge90" locked="0" c_rotation="90"><text x="233" y="-595" font-family="Verdana" font-size="7pt" fill="#000000" text-anchor="end" c_pinname="GND"  transform="rotate(270,233,-595)" >GND</text><text x="229" y="-600" font-family="Verdana" font-size="7pt" fill="#000000" text-anchor="start" c_pinnumber="2" display="none" transform="rotate(270,229,-600)" >2</text><circle c_pindot="true" class="pindot" cx="230" cy="-610" r="2" fill="none" stroke="none" /><path d="M 230 -610 v 10" fill="none" stroke="#000000" stroke-width="1"/><circle cx="230" cy="-603" r="3" stroke="#000000" fill="none" stroke-width="1" display="none" /><path d="M 227 -600 L 230 -597 L 233 -600" fill="none" stroke="#000000" stroke-width="1"  display="none" /></g><g c_partid="part_pin" c_etype="pinpart"  c_show="show"  c_elec="1" c_spicepin="3" c_origin="220,-610" id="gge97" locked="0" c_rotation="90"><text x="223" y="-595" font-family="Verdana" font-size="7pt" fill="#000000" text-anchor="end" c_pinname="SCL"  transform="rotate(270,223,-595)" >SCL</text><text x="219" y="-600" font-family="Verdana" font-size="7pt" fill="#000000" text-anchor="start" c_pinnumber="3" display="none" transform="rotate(270,219,-600)" >3</text><circle c_pindot="true" class="pindot" cx="220" cy="-610" r="2" fill="none" stroke="none" /><path d="M 220 -610 v 10" fill="none" stroke="#000000" stroke-width="1"/><circle cx="220" cy="-603" r="3" stroke="#000000" fill="none" stroke-width="1" display="none" /><path d="M 217 -600 L 220 -597 L 223 -600" fill="none" stroke="#000000" stroke-width="1"  display="none" /></g><g c_partid="part_pin" c_etype="pinpart"  c_show="show"  c_elec="1" c_spicepin="4" c_origin="210,-610" id="gge104" locked="0" c_rotation="90"><text x="213" y="-595" font-family="Verdana" font-size="7pt" fill="#000000" text-anchor="end" c_pinname="SDA"  transform="rotate(270,213,-595)" >SDA</text><text x="209" y="-600" font-family="Verdana" font-size="7pt" fill="#000000" text-anchor="start" c_pinnumber="4" display="none" transform="rotate(270,209,-600)" >4</text><circle c_pindot="true" class="pindot" cx="210" cy="-610" r="2" fill="none" stroke="none" /><path d="M 210 -610 v 10" fill="none" stroke="#000000" stroke-width="1"/><circle cx="210" cy="-603" r="3" stroke="#000000" fill="none" stroke-width="1" display="none" /><path d="M 207 -600 L 210 -597 L 213 -600" fill="none" stroke="#000000" stroke-width="1"  display="none" /></g><g c_partid="part_pin" c_etype="pinpart"  c_show="show"  c_elec="1" c_spicepin="5" c_origin="200,-610" id="gge111" locked="0" c_rotation="90"><text x="203" y="-595" font-family="Verdana" font-size="7pt" fill="#000000" text-anchor="end" c_pinname="VIN-"  transform="rotate(270,203,-595)" >VIN-</text><text x="199" y="-600" font-family="Verdana" font-size="7pt" fill="#000000" text-anchor="start" c_pinnumber="5" display="none" transform="rotate(270,199,-600)" >5</text><circle c_pindot="true" class="pindot" cx="200" cy="-610" r="2" fill="none" stroke="none" /><path d="M 200 -610 v 10" fill="none" stroke="#000000" stroke-width="1"/><circle cx="200" cy="-603" r="3" stroke="#000000" fill="none" stroke-width="1" display="none" /><path d="M 197 -600 L 200 -597 L 203 -600" fill="none" stroke="#000000" stroke-width="1"  display="none" /></g><g c_partid="part_pin" c_etype="pinpart"  c_show="show"  c_elec="1" c_spicepin="6" c_origin="190,-610" id="gge118" locked="0" c_rotation="90"><text x="193" y="-595" font-family="Verdana" font-size="7pt" fill="#000000" text-anchor="end" c_pinname="VIN+"  transform="rotate(270,193,-595)" >VIN+</text><text x="189" y="-600" font-family="Verdana" font-size="7pt" fill="#000000" text-anchor="start" c_pinnumber="6" display="none" transform="rotate(270,189,-600)" >6</text><circle c_pindot="true" class="pindot" cx="190" cy="-610" r="2" fill="none" stroke="none" /><path d="M 190 -610 v 10" fill="none" stroke="#000000" stroke-width="1"/><circle cx="190" cy="-603" r="3" stroke="#000000" fill="none" stroke-width="1" display="none" /><path d="M 187 -600 L 190 -597 L 193 -600" fill="none" stroke="#000000" stroke-width="1"  display="none" /></g></g><g c_origin="95,-685" c_para="package`WJ2EDGV-5.08-2P`spicePre`X`BOM_Supplier Part`C23595`BOM_Supplier`LCSC`BOM_Manufacturer`ReliaPro`BOM_Manufacturer Part`Terminals/WJ2EDGV-5.08-8P`image`//image.lceda.cn/szlcsc/C23595.jpg`Contributor`ilmanciobo`spiceSymbolName`Morsettiera 2 vie`" c_partid="part_lib_gge5388bed451975f96" id="gge5388bed451975f96" locked="0" c_shapetype="group" c_etype="pinpart" puuid="a8f38239f9502ec8ee09e605d55f9ac8" uuid="12c59835600e47018c4f852bcad74d4c" convert_to_pcb="yes" add_into_bom="yes" c_rotation="180"><g c_partid="part_annotation" id="gge177"   c_shapetype="group"><text c_note="note_name" x="50.515625" y="-722" fill="#000080" font-family="Arial" font-size="7pt" font-weight="" font-style="" dominant-baseline="" text-anchor="start"  >Phoenix contatt 2 way</text></g><g c_partid="part_annotation" id="gge179"   c_shapetype="group"><text c_note="note_pre" x="79.296875" y="-732" fill="#000080" font-family="Arial" font-size="7pt" font-weight="" font-style="" dominant-baseline="" text-anchor="start"  >P1</text></g><rect id="gge181" locked="0" c_etype="" x="75" y="-715" rx="2" ry="2" width="20" height="30" stroke="#880000" stroke-width="1" fill="none"   /><ellipse cx="92" cy="-688" rx="1.5" ry="1.5" id="gge182" locked="0" stroke="#880000" stroke-width="1" fill="#880000"   /><g c_partid="part_pin" c_etype="pinpart"  c_show="show"  c_elec="0" c_spicepin="1" c_origin="105,-695" id="gge183" locked="0" c_rotation="0"><text x="91.3" y="-691" font-family="Verdana" font-size="7pt" fill="#0000FF" text-anchor="end" c_pinname="1"   >1</text><text x="95.5" y="-696" font-family="Verdana" font-size="7pt" fill="#0000FF" text-anchor="start" c_pinnumber="1"   >1</text><circle c_pindot="true" class="pindot" cx="105" cy="-695" r="2" fill="none" stroke="none" /><path d="M 105 -695 h -10" fill="none" stroke="#880000" stroke-width="1"/><circle cx="98" cy="-695" r="3" stroke="#880000" fill="none" stroke-width="1" display="none" /><path d="M 95 -698 L 92 -695 L 95 -692" fill="none" stroke="#880000" stroke-width="1"  display="none" /></g><g c_partid="part_pin" c_etype="pinpart"  c_show="show"  c_elec="0" c_spicepin="2" c_origin="105,-705" id="gge190" locked="0" c_rotation="0"><text x="91.3" y="-701" font-family="Verdana" font-size="7pt" fill="#0000FF" text-anchor="end" c_pinname="2"   >2</text><text x="95.5" y="-706" font-family="Verdana" font-size="7pt" fill="#0000FF" text-anchor="start" c_pinnumber="2"   >2</text><circle c_pindot="true" class="pindot" cx="105" cy="-705" r="2" fill="none" stroke="none" /><path d="M 105 -705 h -10" fill="none" stroke="#880000" stroke-width="1"/><circle cx="98" cy="-705" r="3" stroke="#880000" fill="none" stroke-width="1" display="none" /><path d="M 95 -708 L 92 -705 L 95 -702" fill="none" stroke="#880000" stroke-width="1"  display="none" /></g></g><g c_origin="355,-685" c_para="package`HEADER11`BOM_Manufacturer Part``BOM_Supplier Part``BOM_Supplier`Element14`link``Contributor`ancor123`spicePre`U`spiceSymbolName`Header 11`" c_partid="part_lib_gge87c68027ece4b99b" id="gge87c68027ece4b99b" locked="0" c_shapetype="group" c_etype="pinpart" puuid="bee7e04955d6432d9c4ed656d188335b" uuid="447fe3d94584438ba4869b3284811fde" convert_to_pcb="yes" add_into_bom="yes" c_rotation="180"><g c_partid="part_annotation" id="gge200"   c_shapetype="group"><text c_note="note_name" x="381.76" y="-735.54" fill="#000080" font-family="Arial" font-size="7pt" font-weight="" font-style="" dominant-baseline="" text-anchor="start" transform="rotate(90,381.76,-735.54)" >Adafruit bq24074</text></g><path d="M 355 -640 C 355 -635 355 -635 360 -635" id="gge202" locked="0" c_etype=""  stroke="#880000" stroke-width="1"  fill="none" /><g c_partid="part_annotation" id="gge203" display="none"  c_shapetype="group"><text c_note="note_pre" x="351.4" y="-767.0703125" fill="#000080" font-family="Arial" font-size="7pt" font-weight="" font-style="" dominant-baseline="" text-anchor="start"  >1</text></g><path d="M 370 -635 C 375 -635 375 -635 375 -640" id="gge205" locked="0" c_etype=""  stroke="#880000" stroke-width="1"  fill="none" /><polyline points="370 -635 360 -635" stroke="#880000" id="gge206" locked="0" stroke-width="1"   fill="none" stroke-linecap="round" /><path d="M 360 -755 C 355 -755 355 -755 355 -750" id="gge207" locked="0" c_etype=""  stroke="#880000" stroke-width="1"  fill="none" /><polyline points="360 -755 370 -755" stroke="#880000" id="gge208" locked="0" stroke-width="1"   fill="none" stroke-linecap="round" /><path d="M 375 -750 C 375 -755 375 -755 370 -755" id="gge209" locked="0" c_etype=""  stroke="#880000" stroke-width="1"  fill="none" /><polyline points="355 -640 355 -750" stroke="#880000" id="gge210" locked="0" stroke-width="1"   fill="none" stroke-linecap="round" /><polyline points="375 -640 375 -750" stroke="#880000" id="gge211" locked="0" stroke-width="1"   fill="none" stroke-linecap="round" /><g c_partid="part_pin" c_etype="pinpart"  c_show="show"  c_elec="0" c_spicepin="1" c_origin="335,-645" id="gge212" locked="0" c_rotation="180"><text x="347" y="-642" font-family="Verdana" font-size="7pt" fill="#0000FF" text-anchor="start" c_pinname="1" display="none"  >1</text><text x="345" y="-646" font-family="Verdana" font-size="7pt" fill="#0000FF" text-anchor="end" c_pinnumber="1"   >1</text><circle c_pindot="true" class="pindot" cx="335" cy="-645" r="2" fill="none" stroke="none" /><path d="M 335 -645 h 10" fill="none" stroke="#880000" stroke-width="1"/><circle cx="342" cy="-645" r="3" stroke="#880000" fill="none" stroke-width="1" display="none" /><path d="M 345 -642 L 348 -645 L 345 -648" fill="none" stroke="#880000" stroke-width="1"  display="none" /></g><g c_partid="part_pin" c_etype="pinpart"  c_show="show"  c_elec="0" c_spicepin="2" c_origin="335,-655" id="gge219" locked="0" c_rotation="180"><text x="347" y="-652" font-family="Verdana" font-size="7pt" fill="#0000FF" text-anchor="start" c_pinname="2" display="none"  >2</text><text x="345" y="-656" font-family="Verdana" font-size="7pt" fill="#0000FF" text-anchor="end" c_pinnumber="2"   >2</text><circle c_pindot="true" class="pindot" cx="335" cy="-655" r="2" fill="none" stroke="none" /><path d="M 335 -655 h 10" fill="none" stroke="#880000" stroke-width="1"/><circle cx="342" cy="-655" r="3" stroke="#880000" fill="none" stroke-width="1" display="none" /><path d="M 345 -652 L 348 -655 L 345 -658" fill="none" stroke="#880000" stroke-width="1"  display="none" /></g><g c_partid="part_pin" c_etype="pinpart"  c_show="show"  c_elec="0" c_spicepin="3" c_origin="335,-665" id="gge226" locked="0" c_rotation="180"><text x="347" y="-662" font-family="Verdana" font-size="7pt" fill="#0000FF" text-anchor="start" c_pinname="3" display="none"  >3</text><text x="345" y="-666" font-family="Verdana" font-size="7pt" fill="#0000FF" text-anchor="end" c_pinnumber="3"   >3</text><circle c_pindot="true" class="pindot" cx="335" cy="-665" r="2" fill="none" stroke="none" /><path d="M 335 -665 h 10" fill="none" stroke="#880000" stroke-width="1"/><circle cx="342" cy="-665" r="3" stroke="#880000" fill="none" stroke-width="1" display="none" /><path d="M 345 -662 L 348 -665 L 345 -668" fill="none" stroke="#880000" stroke-width="1"  display="none" /></g><g c_partid="part_pin" c_etype="pinpart"  c_show="show"  c_elec="0" c_spicepin="4" c_origin="335,-675" id="gge233" locked="0" c_rotation="180"><text x="347" y="-672" font-family="Verdana" font-size="7pt" fill="#0000FF" text-anchor="start" c_pinname="4" display="none"  >4</text><text x="345" y="-676" font-family="Verdana" font-size="7pt" fill="#0000FF" text-anchor="end" c_pinnumber="4"   >4</text><circle c_pindot="true" class="pindot" cx="335" cy="-675" r="2" fill="none" stroke="none" /><path d="M 335 -675 h 10" fill="none" stroke="#880000" stroke-width="1"/><circle cx="342" cy="-675" r="3" stroke="#880000" fill="none" stroke-width="1" display="none" /><path d="M 345 -672 L 348 -675 L 345 -678" fill="none" stroke="#880000" stroke-width="1"  display="none" /></g><g c_partid="part_pin" c_etype="pinpart"  c_show="show"  c_elec="0" c_spicepin="5" c_origin="335,-685" id="gge240" locked="0" c_rotation="180"><text x="347" y="-682" font-family="Verdana" font-size="7pt" fill="#0000FF" text-anchor="start" c_pinname="5" display="none"  >5</text><text x="345" y="-686" font-family="Verdana" font-size="7pt" fill="#0000FF" text-anchor="end" c_pinnumber="5"   >5</text><circle c_pindot="true" class="pindot" cx="335" cy="-685" r="2" fill="none" stroke="none" /><path d="M 335 -685 h 10" fill="none" stroke="#880000" stroke-width="1"/><circle cx="342" cy="-685" r="3" stroke="#880000" fill="none" stroke-width="1" display="none" /><path d="M 345 -682 L 348 -685 L 345 -688" fill="none" stroke="#880000" stroke-width="1"  display="none" /></g><g c_partid="part_pin" c_etype="pinpart"  c_show="show"  c_elec="0" c_spicepin="6" c_origin="335,-695" id="gge247" locked="0" c_rotation="180"><text x="347" y="-692" font-family="Verdana" font-size="7pt" fill="#0000FF" text-anchor="start" c_pinname="6" display="none"  >6</text><text x="345" y="-696" font-family="Verdana" font-size="7pt" fill="#0000FF" text-anchor="end" c_pinnumber="6"   >6</text><circle c_pindot="true" class="pindot" cx="335" cy="-695" r="2" fill="none" stroke="none" /><path d="M 335 -695 h 10" fill="none" stroke="#880000" stroke-width="1"/><circle cx="342" cy="-695" r="3" stroke="#880000" fill="none" stroke-width="1" display="none" /><path d="M 345 -692 L 348 -695 L 345 -698" fill="none" stroke="#880000" stroke-width="1"  display="none" /></g><g c_partid="part_pin" c_etype="pinpart"  c_show="show"  c_elec="0" c_spicepin="7" c_origin="335,-705" id="gge254" locked="0" c_rotation="180"><text x="347" y="-702" font-family="Verdana" font-size="7pt" fill="#0000FF" text-anchor="start" c_pinname="7" display="none"  >7</text><text x="345" y="-706" font-family="Verdana" font-size="7pt" fill="#0000FF" text-anchor="end" c_pinnumber="7"   >7</text><circle c_pindot="true" class="pindot" cx="335" cy="-705" r="2" fill="none" stroke="none" /><path d="M 335 -705 h 10" fill="none" stroke="#880000" stroke-width="1"/><circle cx="342" cy="-705" r="3" stroke="#880000" fill="none" stroke-width="1" display="none" /><path d="M 345 -702 L 348 -705 L 345 -708" fill="none" stroke="#880000" stroke-width="1"  display="none" /></g><g c_partid="part_pin" c_etype="pinpart"  c_show="show"  c_elec="0" c_spicepin="8" c_origin="335,-715" id="gge261" locked="0" c_rotation="180"><text x="347" y="-712" font-family="Verdana" font-size="7pt" fill="#0000FF" text-anchor="start" c_pinname="8" display="none"  >8</text><text x="345" y="-716" font-family="Verdana" font-size="7pt" fill="#0000FF" text-anchor="end" c_pinnumber="8"   >8</text><circle c_pindot="true" class="pindot" cx="335" cy="-715" r="2" fill="none" stroke="none" /><path d="M 335 -715 h 10" fill="none" stroke="#880000" stroke-width="1"/><circle cx="342" cy="-715" r="3" stroke="#880000" fill="none" stroke-width="1" display="none" /><path d="M 345 -712 L 348 -715 L 345 -718" fill="none" stroke="#880000" stroke-width="1"  display="none" /></g><g c_partid="part_pin" c_etype="pinpart"  c_show="show"  c_elec="0" c_spicepin="9" c_origin="335,-725" id="gge268" locked="0" c_rotation="180"><text x="347" y="-722" font-family="Verdana" font-size="7pt" fill="#0000FF" text-anchor="start" c_pinname="9" display="none"  >9</text><text x="345" y="-726" font-family="Verdana" font-size="7pt" fill="#0000FF" text-anchor="end" c_pinnumber="9"   >9</text><circle c_pindot="true" class="pindot" cx="335" cy="-725" r="2" fill="none" stroke="none" /><path d="M 335 -725 h 10" fill="none" stroke="#880000" stroke-width="1"/><circle cx="342" cy="-725" r="3" stroke="#880000" fill="none" stroke-width="1" display="none" /><path d="M 345 -722 L 348 -725 L 345 -728" fill="none" stroke="#880000" stroke-width="1"  display="none" /></g><g c_partid="part_pin" c_etype="pinpart"  c_show="show"  c_elec="0" c_spicepin="10" c_origin="335,-735" id="gge275" locked="0" c_rotation="180"><text x="347" y="-732" font-family="Verdana" font-size="7pt" fill="#0000FF" text-anchor="start" c_pinname="10" display="none"  >10</text><text x="345" y="-736" font-family="Verdana" font-size="7pt" fill="#0000FF" text-anchor="end" c_pinnumber="10"   >10</text><circle c_pindot="true" class="pindot" cx="335" cy="-735" r="2" fill="none" stroke="none" /><path d="M 335 -735 h 10" fill="none" stroke="#880000" stroke-width="1"/><circle cx="342" cy="-735" r="3" stroke="#880000" fill="none" stroke-width="1" display="none" /><path d="M 345 -732 L 348 -735 L 345 -738" fill="none" stroke="#880000" stroke-width="1"  display="none" /></g><g c_partid="part_pin" c_etype="pinpart"  c_show="show"  c_elec="0" c_spicepin="11" c_origin="335,-745" id="gge282" locked="0" c_rotation="180"><text x="347" y="-742" font-family="Verdana" font-size="7pt" fill="#0000FF" text-anchor="start" c_pinname="11" display="none"  >11</text><text x="345" y="-746" font-family="Verdana" font-size="7pt" fill="#0000FF" text-anchor="end" c_pinnumber="11"   >11</text><circle c_pindot="true" class="pindot" cx="335" cy="-745" r="2" fill="none" stroke="none" /><path d="M 335 -745 h 10" fill="none" stroke="#880000" stroke-width="1"/><circle cx="342" cy="-745" r="3" stroke="#880000" fill="none" stroke-width="1" display="none" /><path d="M 345 -742 L 348 -745 L 345 -748" fill="none" stroke="#880000" stroke-width="1"  display="none" /></g><polyline points="355 -645 345 -645 345 -645" stroke="#000000" id="gge289" locked="0" stroke-width="1"   fill="none" stroke-linecap="round" /><polyline points="355 -655 345 -655 345 -655" stroke="#000000" id="gge290" locked="0" stroke-width="1"   fill="none" stroke-linecap="round" /><polyline points="355 -665 345 -665" stroke="#000000" id="gge291" locked="0" stroke-width="1"   fill="none" stroke-linecap="round" /><polyline points="355 -675 345 -675" stroke="#000000" id="gge292" locked="0" stroke-width="1"   fill="none" stroke-linecap="round" /><polyline points="355 -685 345 -685" stroke="#000000" id="gge293" locked="0" stroke-width="1"   fill="none" stroke-linecap="round" /><polyline points="355 -695 345 -695" stroke="#000000" id="gge294" locked="0" stroke-width="1"   fill="none" stroke-linecap="round" /><polyline points="355 -705 345 -705" stroke="#000000" id="gge295" locked="0" stroke-width="1"   fill="none" stroke-linecap="round" /><polyline points="355 -715 345 -715" stroke="#000000" id="gge296" locked="0" stroke-width="1"   fill="none" stroke-linecap="round" /><polyline points="355 -725 345 -725" stroke="#000000" id="gge297" locked="0" stroke-width="1"   fill="none" stroke-linecap="round" /><polyline points="355 -735 345 -735" stroke="#000000" id="gge298" locked="0" stroke-width="1"   fill="none" stroke-linecap="round" /><polyline points="355 -745 345 -745" stroke="#000000" id="gge299" locked="0" stroke-width="1"   fill="none" stroke-linecap="round" /></g><polyline c_etype="wire" c_shapetype="line" points="105 -695 190 -695 190 -610" stroke="#008800" id="gge300" locked="0" stroke-width="1"   fill="none" stroke-linecap="round" /><polyline c_etype="wire" c_shapetype="line" points="200 -610 200 -695 310 -695 310 -645 335 -645" stroke="#008800" id="gge302" locked="0" stroke-width="1"   fill="none" stroke-linecap="round" /><polyline c_etype="wire" c_shapetype="line" points="105 -705 320 -705 320 -655 335 -655" stroke="#008800" id="gge303" locked="0" stroke-width="1"   fill="none" stroke-linecap="round" /><g c_partid="part_netLabel_netPort" c_etype="pinpart" c_origin="240,-610" id="gge304" locked="0" c_shapetype="group" c_rotation="270"><circle c_pindot="true" class="pindot" cx="240" cy="-610" r="2" fill="none" stroke="none" /><g c_partid="part_annotation" id="gge306" c_shapetype="group" ><text x="242.06" y="-631.5" font-family="Times New Roman" font-size="8pt" fill="#0000FF" text-anchor="start" c_note="note_netflag" transform="rotate(270,242.06,-631.5)">3V3</text></g><polyline points="240 -610 235 -615 235 -630 245 -630 245 -615 240 -610" stroke="#0000FF" id="gge308" locked="0" stroke-width="1"   fill="transparent" stroke-linecap="round" /></g><g c_partid="part_netLabel_netPort" c_etype="pinpart" c_origin="230,-610" id="gge309" locked="0" c_shapetype="group" c_rotation="270"><circle c_pindot="true" class="pindot" cx="230" cy="-610" r="2" fill="none" stroke="none" /><g c_partid="part_annotation" id="gge311" c_shapetype="group" ><text x="232.06" y="-631.5" font-family="Times New Roman" font-size="8pt" fill="#0000FF" text-anchor="start" c_note="note_netflag" transform="rotate(270,232.06,-631.5)">GND</text></g><polyline points="230 -610 225 -615 225 -630 235 -630 235 -615 230 -610" stroke="#0000FF" id="gge313" locked="0" stroke-width="1"   fill="transparent" stroke-linecap="round" /></g><g c_partid="part_netLabel_netPort" c_etype="pinpart" c_origin="220,-610" id="gge314" locked="0" c_shapetype="group" c_rotation="270"><circle c_pindot="true" class="pindot" cx="220" cy="-610" r="2" fill="none" stroke="none" /><g c_partid="part_annotation" id="gge316" c_shapetype="group" ><text x="222.06" y="-631.5" font-family="Times New Roman" font-size="8pt" fill="#0000FF" text-anchor="start" c_note="note_netflag" transform="rotate(270,222.06,-631.5)">SCL</text></g><polyline points="220 -610 215 -615 215 -630 225 -630 225 -615 220 -610" stroke="#0000FF" id="gge318" locked="0" stroke-width="1"   fill="transparent" stroke-linecap="round" /></g><g c_partid="part_netLabel_netPort" c_etype="pinpart" c_origin="210,-610" id="gge319" locked="0" c_shapetype="group" c_rotation="270"><circle c_pindot="true" class="pindot" cx="210" cy="-610" r="2" fill="none" stroke="none" /><g c_partid="part_annotation" id="gge321" c_shapetype="group" ><text x="212.06" y="-631.5" font-family="Times New Roman" font-size="8pt" fill="#0000FF" text-anchor="start" c_note="note_netflag" transform="rotate(270,212.06,-631.5)">SDA</text></g><polyline points="210 -610 205 -615 205 -630 215 -630 215 -615 210 -610" stroke="#0000FF" id="gge323" locked="0" stroke-width="1"   fill="transparent" stroke-linecap="round" /></g></g></svg>