<svg xmlns="http://www.w3.org/2000/svg" xmlns:xlink="http://www.w3.org/1999/xlink" width="775.6" height="510.4" viewBox="2.5 -785 387.8 255.2"><title>INA219_battery</title><style type="text/css">
path, polyline, polygon {stroke-linejoin:round;}
rect, circle, ellipse, polyline, line, polygon, path {shape-rendering:crispEdges;}
</style>
<rect x="2.5" y="-785" width="387.8" height="255.2" fill="#FFFFFF" stroke="none"/><g xmlns="http://www.w3.org/2000/svg" id="g1" c_spiceCmd="null" c_para="Prefix Start`1`" importFlag="0" c_portOfADImportHack="" c_transformList=""><g c_origin="215,-595" c_para="package`INA219`BOM_Supplier`LCSC`BOM_Manufacturer`BOOMELE`BOM_Manufacturer Part`Header-Male-2.54_1x6`BOM_Supplier Part`C37208`Contributor`alehramanovich`spicePre`U`spiceSymbolName`INA219`" c_partid="part_lib_gge752b393dda5b75cb" id="gge752b393dda5b75cb" locked="0" c_shapetype="group" c_etype="pinpart" puuid="b25ddaa639d84da4b86d0b023a223bac" uuid="8d4e09a66c6d47fbbeaff2ed165b180e" convert_to_pcb="yes" add_into_bom="yes" c_rotation="270"><g c_partid="part_annotation" id="gge78"   c_shapetype="group"><text c_note="note_name" x="204.4296875" y="-541.765625" fill="#000080" font-family="Arial" font-size="7pt" font-weight="" font-style="" dominant-baseline="" text-anchor="start"  >INA219</text></g><g c_partid="part_annotation" id="gge80"   c_shapetype="group"><text c_note="note_pre" x="214.03125" y="-551.765625" fill="#000080" font-family="Arial" font-size="7pt" font-weight="" font-style="" dominant-baseline="" text-anchor="start"  >U1</text></g><rect id="gge82" locked="0" c_etype="" x="180" y="-600" rx="2" ry="2" width="70" height="40" stroke="#880000" stroke-width="1" fill="none"   /><g c_partid="part_pin" c_etype="pinpart"  c_show="show"  c_elec="1" c_spicepin="1" c_origin="240,-610" id="gge83" locked="0" c_rotation="90"><text x="243" y="-595" font-family="Verdana" font-size="7pt" fill="#000000" text-anchor="end" c_pinname="VCC"  transform="rotate(270,243,-595)" >VCC</text><text x="239" y="-600" font-family="Verdana" font-size="7pt" fill="#000000" text-anchor="start" c_pinnumber="1" display="none" transform="rotate(270,239,-600)" >1</text><circle c_pindot="true" class="pindot" cx="240" cy="-610" r="2" fill="none" stroke="none" /><path d="M 240 -610 v 10" fill="none" stroke="#000000" stroke-width="1"/><circle cx="240" cy="-603" r="3" stroke="#000000" fill="none" stroke-width="1" display="none" /><path d="M 237 -600 L 240 -597 L 243 -600" fill="none" stroke="#000000" stroke-width="1"  display="none" /></g><g c_partid="part_pin" c_etype="pinpart"  c_show="show"  c_elec="1" c_spicepin="2" c_origin="230,-610" id="gge90" locked="0" c_rotation="90"><text x="233" y="-595" font-family="Verdana" font-size="7pt" fill="#000000" text-anchor="end" c_pinname="GND"  transform="rotate(270,233,-595)" >GND</text><text x="229" y="-600" font-family="Verdana" font-size="7pt" fill="#000000" text-anchor="start" c_pinnumber="2" display="none" transform="rotate(270,229,-600)" >2</text><circle c_pindot="true" class="pindot" cx="230" cy="-610" r="2" fill="none" stroke="none" /><path d="M 230 -610 v 10" fill="none" stroke="#000000" stroke-width="1"/><circle cx="230" cy="-603" r="3" stroke="#000000" fill="none" stroke-width="1" display="none" /><path d="M 227 -600 L 230 -597 L 233 -600" fill="none" stroke="#000000" stroke-width="1"  display="none" /></g><g c_partid="part_pin" c_etype="pinpart"  c_show="show"  c_elec="1" c_spicepin="3" c_origin="220,-610" id="gge97" locked="0" c_rotation="90"><text x="223" y="-595" font-family="Verdana" font-size="7pt" fill="#000000" text-anchor="end" c_pinname="SCL"  transform="rotate(270,223,-595)" >SCL</text><text x="219" y="-600" font-family="Verdana" font-size="7pt" fill="#000000" text-anchor="start" c_pinnumber="3" display="none" transform="rotate(270,219,-600)" >3</text><circle c_pindot="true" class="pindot" cx="220" cy="-610" r="2" fill="none" stroke="none" /><path d="M 220 -610 v 10" fill="none" stroke="#000000" stroke-width="1"/><circle cx="220" cy="-603" r="3" stroke="#000000" fill="none" stroke-width="1" display="none" /><path d="M 217 -600 L 220 -597 L 223 -600" fill="none" stroke="#000000" stroke-width="1"  display="none" /></g><g c_partid="part_pin" c_etype="pinpart"  c_show="show"  c_elec="1" c_spicepin="4" c_origin="210,-610" id="gge104" locked="0" c_rotation="90"><text x="213" y="-595" font-family="Verdana" font-size="7pt" fill="#000000" text-anchor="end" c_pinname="SDA"  transform="rotate(270,213,-595)" >SDA</text><text x="209" y="-600" font-family="Verdana" font-size="7pt" fill="#000000" text-anchor="start" c_pinnumber="4" display="none" transform="rotate(270,209,-600)" >4</text><circle c_pindot="true" class="pindot" cx="210" cy="-610" r="2" fill="none" stroke="none" /><path d="M 210 -610 v 10" fill="none" stroke="#000000" stroke-width="1"/><circle cx="210" cy="-603" r="3" stroke="#000000" fill="none" stroke-width="1" display="none" /><path d="M 207 -600 L 210 -597 L 213 -600" fill="none" stroke="#000000" stroke-width="1"  display="none" /></g><g c_partid="part_pin" c_etype="pinpart"  c_show="show"  c_elec="1" c_spicepin="5" c_origin="200,-610" id="gge111" locked="0" c_rotation="90"><text x="203" y="-595" font-family="Verdana" font-size="7pt" fill="#000000" text-anchor="end" c_pinname="VIN-"  transform="rotate(270,203,-595)" >VIN-</text><text x="199" y="-600" font-family="Verdana" font-size="7pt" fill="#000000" text-anchor="start" c_pinnumber="5" display="none" transform="rotate(270,199,-600)" >5</text><circle c_pindot="true" class="pindot" cx="200" cy="-610" r="2" fill="none" stroke="none" /><path d="M 200 -610 v 10" fill="none" stroke="#000000" stroke-width="1"/><circle cx="200" cy="-603" r="3" stroke="#000000" fill="none" stroke-width="1" display="none" /><path d="M 197 -600 L 200 -597 L 203 -600" fill="none" stroke="#000000" stroke-width="1"  display="none" /></g><g c_partid="part_pin" c_etype="pinpart"  c_show="show"  c_elec="1" c_spicepin="6" c_origin="190,-610" id="gge118" locked="0" c_rotation="90"><text x="193" y="-595" font-family="Verdana" font-size="7pt" fill="#000000" text-anchor="end" c_pinname="VIN+"  transform="rotate(270,193,-595)" >VIN+</text><text x="189" y="-600" font-family="Verdana" font-size="7pt" fill="#000000" text-anchor="start" c_pinnumber="6" display="none" transform="rotate(270,189,-600)" >6</text><circle c_pindot="true" class="pindot" cx="190" cy="-610" r="2" fill="none" stroke="none" /><path d="M 190 -610 v 10" fill="none" stroke="#000000" stroke-width="1"/><circle cx="190" cy="-603" r="3" stroke="#000000" fill="none" stroke-width="1" display="none" /><path d="M 187 -600 L 190 -597 L 193 -600" fill="none" stroke="#000000" stroke-width="1"  display="none" /></g></g><g c_origin="345,-685" c_para="package`HEADER11`BOM_Manufacturer Part``BOM_Supplier Part``BOM_Supplier`Element14`link``Contributor`ancor123`spicePre`U`spiceSymbolName`Header 11`" c_partid="part_lib_gge87c68027ece4b99b" id="gge87c68027ece4b99b" locked="0" c_shapetype="group" c_etype="pinpart" puuid="bee7e04955d6432d9c4ed656d188335b" uuid="447fe3d94584438ba4869b3284811fde" convert_to_pcb="yes" add_into_bom="yes" c_rotation="180"><g c_partid="part_annotation" id="gge200"   c_shapetype="group"><text c_note="note_name" x="371.76" y="-735.54" fill="#000080" font-family="Arial" font-size="7pt" font-weight="" font-style="" dominant-baseline="" text-anchor="start" transform="rotate(90,371.76,-735.54)" >Adafruit bq24074</text></g><path d="M 345 -640 C 345 -635 345 -635 350 -635" id="gge202" locked="0" c_etype=""  stroke="#880000" stroke-width="1"  fill="none" /><g c_partid="part_annotation" id="gge203" display="none"  c_shapetype="group"><text c_note="note_pre" x="341.4" y="-767.0703125" fill="#000080" font-family="Arial" font-size="7pt" font-weight="" font-style="" dominant-baseline="" text-anchor="start"  >1</text></g><path d="M 360 -635 C 365 -635 365 -635 365 -640" id="gge205" locked="0" c_etype=""  stroke="#880000" stroke-width="1"  fill="none" /><polyline points="360 -635 350 -635" stroke="#880000" id="gge206" locked="0" stroke-width="1"   fill="none" stroke-linecap="round" /><path d="M 350 -755 C 345 -755 345 -755 345 -750" id="gge207" locked="0" c_etype=""  stroke="#880000" stroke-width="1"  fill="none" /><polyline points="350 -755 360 -755" stroke="#880000" id="gge208" locked="0" stroke-width="1"   fill="none" stroke-linecap="round" /><path d="M 365 -750 C 365 -755 365 -755 360 -755" id="gge209" locked="0" c_etype=""  stroke="#880000" stroke-width="1"  fill="none" /><polyline points="345 -640 345 -750" stroke="#880000" id="gge210" locked="0" stroke-width="1"   fill="none" stroke-linecap="round" /><polyline points="365 -640 365 -750" stroke="#880000" id="gge211" locked="0" stroke-width="1"   fill="none" stroke-linecap="round" /><g c_partid="part_pin" c_etype="pinpart"  c_show="show"  c_elec="0" c_spicepin="1" c_origin="325,-645" id="gge212" locked="0" c_rotation="180"><text x="337" y="-642" font-family="Verdana" font-size="7pt" fill="#0000FF" text-anchor="start" c_pinname="1" display="none"  >1</text><text x="335" y="-646" font-family="Verdana" font-size="7pt" fill="#0000FF" text-anchor="end" c_pinnumber="1"   >1</text><circle c_pindot="true" class="pindot" cx="325" cy="-645" r="2" fill="none" stroke="none" /><path d="M 325 -645 h 10" fill="none" stroke="#880000" stroke-width="1"/><circle cx="332" cy="-645" r="3" stroke="#880000" fill="none" stroke-width="1" display="none" /><path d="M 335 -642 L 338 -645 L 335 -648" fill="none" stroke="#880000" stroke-width="1"  display="none" /></g><g c_partid="part_pin" c_etype="pinpart"  c_show="show"  c_elec="0" c_spicepin="2" c_origin="325,-655" id="gge219" locked="0" c_rotation="180"><text x="337" y="-652" font-family="Verdana" font-size="7pt" fill="#0000FF" text-anchor="start" c_pinname="2" display="none"  >2</text><text x="335" y="-656" font-family="Verdana" font-size="7pt" fill="#0000FF" text-anchor="end" c_pinnumber="2"   >2</text><circle c_pindot="true" class="pindot" cx="325" cy="-655" r="2" fill="none" stroke="none" /><path d="M 325 -655 h 10" fill="none" stroke="#880000" stroke-width="1"/><circle cx="332" cy="-655" r="3" stroke="#880000" fill="none" stroke-width="1" display="none" /><path d="M 335 -652 L 338 -655 L 335 -658" fill="none" stroke="#880000" stroke-width="1"  display="none" /></g><g c_partid="part_pin" c_etype="pinpart"  c_show="show"  c_elec="0" c_spicepin="3" c_origin="325,-665" id="gge226" locked="0" c_rotation="180"><text x="337" y="-662" font-family="Verdana" font-size="7pt" fill="#0000FF" text-anchor="start" c_pinname="3" display="none"  >3</text><text x="335" y="-666" font-family="Verdana" font-size="7pt" fill="#0000FF" text-anchor="end" c_pinnumber="3"   >3</text><circle c_pindot="true" class="pindot" cx="325" cy="-665" r="2" fill="none" stroke="none" /><path d="M 325 -665 h 10" fill="none" stroke="#880000" stroke-width="1"/><circle cx="332" cy="-665" r="3" stroke="#880000" fill="none" stroke-width="1" display="none" /><path d="M 335 -662 L 338 -665 L 335 -668" fill="none" stroke="#880000" stroke-width="1"  display="none" /></g><g c_partid="part_pin" c_etype="pinpart"  c_show="show"  c_elec="0" c_spicepin="4" c_origin="325,-675" id="gge233" locked="0" c_rotation="180"><text x="337" y="-672" font-family="Verdana" font-size="7pt" fill="#0000FF" text-anchor="start" c_pinname="4" display="none"  >4</text><text x="335" y="-676" font-family="Verdana" font-size="7pt" fill="#0000FF" text-anchor="end" c_pinnumber="4"   >4</text><circle c_pindot="true" class="pindot" cx="325" cy="-675" r="2" fill="none" stroke="none" /><path d="M 325 -675 h 10" fill="none" stroke="#880000" stroke-width="1"/><circle cx="332" cy="-675" r="3" stroke="#880000" fill="none" stroke-width="1" display="none" /><path d="M 335 -672 L 338 -675 L 335 -678" fill="none" stroke="#880000" stroke-width="1"  display="none" /></g><g c_partid="part_pin" c_etype="pinpart"  c_show="show"  c_elec="0" c_spicepin="5" c_origin="325,-685" id="gge240" locked="0" c_rotation="180"><text x="337" y="-682" font-family="Verdana" font-size="7pt" fill="#0000FF" text-anchor="start" c_pinname="5" display="none"  >5</text><text x="335" y="-686" font-family="Verdana" font-size="7pt" fill="#0000FF" text-anchor="end" c_pinnumber="5"   >5</text><circle c_pindot="true" class="pindot" cx="325" cy="-685" r="2" fill="none" stroke="none" /><path d="M 325 -685 h 10" fill="none" stroke="#880000" stroke-width="1"/><circle cx="332" cy="-685" r="3" stroke="#880000" fill="none" stroke-width="1" display="none" /><path d="M 335 -682 L 338 -685 L 335 -688" fill="none" stroke="#880000" stroke-width="1"  display="none" /></g><g c_partid="part_pin" c_etype="pinpart"  c_show="show"  c_elec="0" c_spicepin="6" c_origin="325,-695" id="gge247" locked="0" c_rotation="180"><text x="337" y="-692" font-family="Verdana" font-size="7pt" fill="#0000FF" text-anchor="start" c_pinname="6" display="none"  >6</text><text x="335" y="-696" font-family="Verdana" font-size="7pt" fill="#0000FF" text-anchor="end" c_pinnumber="6"   >6</text><circle c_pindot="true" class="pindot" cx="325" cy="-695" r="2" fill="none" stroke="none" /><path d="M 325 -695 h 10" fill="none" stroke="#880000" stroke-width="1"/><circle cx="332" cy="-695" r="3" stroke="#880000" fill="none" stroke-width="1" display="none" /><path d="M 335 -692 L 338 -695 L 335 -698" fill="none" stroke="#880000" stroke-width="1"  display="none" /></g><g c_partid="part_pin" c_etype="pinpart"  c_show="show"  c_elec="0" c_spicepin="7" c_origin="325,-705" id="gge254" locked="0" c_rotation="180"><text x="337" y="-702" font-family="Verdana" font-size="7pt" fill="#0000FF" text-anchor="start" c_pinname="7" display="none"  >7</text><text x="335" y="-706" font-family="Verdana" font-size="7pt" fill="#0000FF" text-anchor="end" c_pinnumber="7"   >7</text><circle c_pindot="true" class="pindot" cx="325" cy="-705" r="2" fill="none" stroke="none" /><path d="M 325 -705 h 10" fill="none" stroke="#880000" stroke-width="1"/><circle cx="332" cy="-705" r="3" stroke="#880000" fill="none" stroke-width="1" display="none" /><path d="M 335 -702 L 338 -705 L 335 -708" fill="none" stroke="#880000" stroke-width="1"  display="none" /></g><g c_partid="part_pin" c_etype="pinpart"  c_show="show"  c_elec="0" c_spicepin="8" c_origin="325,-715" id="gge261" locked="0" c_rotation="180"><text x="337" y="-712" font-family="Verdana" font-size="7pt" fill="#0000FF" text-anchor="start" c_pinname="8" display="none"  >8</text><text x="335" y="-716" font-family="Verdana" font-size="7pt" fill="#0000FF" text-anchor="end" c_pinnumber="8"   >8</text><circle c_pindot="true" class="pindot" cx="325" cy="-715" r="2" fill="none" stroke="none" /><path d="M 325 -715 h 10" fill="none" stroke="#880000" stroke-width="1"/><circle cx="332" cy="-715" r="3" stroke="#880000" fill="none" stroke-width="1" display="none" /><path d="M 335 -712 L 338 -715 L 335 -718" fill="none" stroke="#880000" stroke-width="1"  display="none" /></g><g c_partid="part_pin" c_etype="pinpart"  c_show="show"  c_elec="0" c_spicepin="9" c_origin="325,-725" id="gge268" locked="0" c_rotation="180"><text x="337" y="-722" font-family="Verdana" font-size="7pt" fill="#0000FF" text-anchor="start" c_pinname="9" display="none"  >9</text><text x="335" y="-726" font-family="Verdana" font-size="7pt" fill="#0000FF" text-anchor="end" c_pinnumber="9"   >9</text><circle c_pindot="true" class="pindot" cx="325" cy="-725" r="2" fill="none" stroke="none" /><path d="M 325 -725 h 10" fill="none" stroke="#880000" stroke-width="1"/><circle cx="332" cy="-725" r="3" stroke="#880000" fill="none" stroke-width="1" display="none" /><path d="M 335 -722 L 338 -725 L 335 -728" fill="none" stroke="#880000" stroke-width="1"  display="none" /></g><g c_partid="part_pin" c_etype="pinpart"  c_show="show"  c_elec="0" c_spicepin="10" c_origin="325,-735" id="gge275" locked="0" c_rotation="180"><text x="337" y="-732" font-family="Verdana" font-size="7pt" fill="#0000FF" text-anchor="start" c_pinname="10" display="none"  >10</text><text x="335" y="-736" font-family="Verdana" font-size="7pt" fill="#0000FF" text-anchor="end" c_pinnumber="10"   >10</text><circle c_pindot="true" class="pindot" cx="325" cy="-735" r="2" fill="none" stroke="none" /><path d="M 325 -735 h 10" fill="none" stroke="#880000" stroke-width="1"/><circle cx="332" cy="-735" r="3" stroke="#880000" fill="none" stroke-width="1" display="none" /><path d="M 335 -732 L 338 -735 L 335 -738" fill="none" stroke="#880000" stroke-width="1"  display="none" /></g><g c_partid="part_pin" c_etype="pinpart"  c_show="show"  c_elec="0" c_spicepin="11" c_origin="325,-745" id="gge282" locked="0" c_rotation="180"><text x="337" y="-742" font-family="Verdana" font-size="7pt" fill="#0000FF" text-anchor="start" c_pinname="11" display="none"  >11</text><text x="335" y="-746" font-family="Verdana" font-size="7pt" fill="#0000FF" text-anchor="end" c_pinnumber="11"   >11</text><circle c_pindot="true" class="pindot" cx="325" cy="-745" r="2" fill="none" stroke="none" /><path d="M 325 -745 h 10" fill="none" stroke="#880000" stroke-width="1"/><circle cx="332" cy="-745" r="3" stroke="#880000" fill="none" stroke-width="1" display="none" /><path d="M 335 -742 L 338 -745 L 335 -748" fill="none" stroke="#880000" stroke-width="1"  display="none" /></g><polyline points="345 -645 335 -645 335 -645" stroke="#000000" id="gge289" locked="0" stroke-width="1"   fill="none" stroke-linecap="round" /><polyline points="345 -655 335 -655 335 -655" stroke="#000000" id="gge290" locked="0" stroke-width="1"   fill="none" stroke-linecap="round" /><polyline points="345 -665 335 -665" stroke="#000000" id="gge291" locked="0" stroke-width="1"   fill="none" stroke-linecap="round" /><polyline points="345 -675 335 -675" stroke="#000000" id="gge292" locked="0" stroke-width="1"   fill="none" stroke-linecap="round" /><polyline points="345 -685 335 -685" stroke="#000000" id="gge293" locked="0" stroke-width="1"   fill="none" stroke-linecap="round" /><polyline points="345 -695 335 -695" stroke="#000000" id="gge294" locked="0" stroke-width="1"   fill="none" stroke-linecap="round" /><polyline points="345 -705 335 -705" stroke="#000000" id="gge295" locked="0" stroke-width="1"   fill="none" stroke-linecap="round" /><polyline points="345 -715 335 -715" stroke="#000000" id="gge296" locked="0" stroke-width="1"   fill="none" stroke-linecap="round" /><polyline points="345 -725 335 -725" stroke="#000000" id="gge297" locked="0" stroke-width="1"   fill="none" stroke-linecap="round" /><polyline points="345 -735 335 -735" stroke="#000000" id="gge298" locked="0" stroke-width="1"   fill="none" stroke-linecap="round" /><polyline points="345 -745 335 -745" stroke="#000000" id="gge299" locked="0" stroke-width="1"   fill="none" stroke-linecap="round" /></g><polyline c_etype="wire" c_shapetype="line" points="135 -690 190 -690 190 -610" stroke="#008800" id="gge300" locked="0" stroke-width="1"   fill="none" stroke-linecap="round" /><polyline c_etype="wire" c_shapetype="line" points="200 -610 200 -695 310 -695 310 -735 325 -735" stroke="#008800" id="gge302" locked="0" stroke-width="1"   fill="none" stroke-linecap="round" /><polyline c_etype="wire" c_shapetype="line" points="25 -710 15 -710 15 -775 310 -775 310 -745 325 -745" stroke="#008800" id="gge303" locked="0" stroke-width="1"   fill="none" stroke-linecap="round" /><g c_partid="part_netLabel_netPort" c_etype="pinpart" c_origin="240,-610" id="gge304" locked="0" c_shapetype="group" c_rotation="270"><circle c_pindot="true" class="pindot" cx="240" cy="-610" r="2" fill="none" stroke="none" /><g c_partid="part_annotation" id="flag_gge9" c_shapetype="group" ><text x="242.06" y="-631.5" font-family="Times New Roman" font-size="8pt" fill="#0000FF" text-anchor="start" c_note="note_netflag" transform="rotate(270,242.06,-631.5)">3V3</text></g><polyline points="240 -610 235 -615 235 -630 245 -630 245 -615 240 -610" stroke="#0000FF" id="gge308" locked="0" stroke-width="1"   fill="transparent" stroke-linecap="round" /></g><g c_partid="part_netLabel_netPort" c_etype="pinpart" c_origin="230,-610" id="gge309" locked="0" c_shapetype="group" c_rotation="270"><circle c_pindot="true" class="pindot" cx="230" cy="-610" r="2" fill="none" stroke="none" /><g c_partid="part_annotation" id="flag_gge10" c_shapetype="group" ><text x="232.06" y="-631.5" font-family="Times New Roman" font-size="8pt" fill="#0000FF" text-anchor="start" c_note="note_netflag" transform="rotate(270,232.06,-631.5)">GND</text></g><polyline points="230 -610 225 -615 225 -630 235 -630 235 -615 230 -610" stroke="#0000FF" id="gge313" locked="0" stroke-width="1"   fill="transparent" stroke-linecap="round" /></g><g c_partid="part_netLabel_netPort" c_etype="pinpart" c_origin="220,-610" id="gge314" locked="0" c_shapetype="group" c_rotation="270"><circle c_pindot="true" class="pindot" cx="220" cy="-610" r="2" fill="none" stroke="none" /><g c_partid="part_annotation" id="flag_gge11" c_shapetype="group" ><text x="222.06" y="-631.5" font-family="Times New Roman" font-size="8pt" fill="#0000FF" text-anchor="start" c_note="note_netflag" transform="rotate(270,222.06,-631.5)">SCL</text></g><polyline points="220 -610 215 -615 215 -630 225 -630 225 -615 220 -610" stroke="#0000FF" id="gge318" locked="0" stroke-width="1"   fill="transparent" stroke-linecap="round" /></g><g c_partid="part_netLabel_netPort" c_etype="pinpart" c_origin="210,-610" id="gge319" locked="0" c_shapetype="group" c_rotation="270"><circle c_pindot="true" class="pindot" cx="210" cy="-610" r="2" fill="none" stroke="none" /><g c_partid="part_annotation" id="flag_gge12" c_shapetype="group" ><text x="212.06" y="-631.5" font-family="Times New Roman" font-size="8pt" fill="#0000FF" text-anchor="start" c_note="note_netflag" transform="rotate(270,212.06,-631.5)">SDA</text></g><polyline points="210 -610 205 -615 205 -630 215 -630 215 -615 210 -610" stroke="#0000FF" id="gge323" locked="0" stroke-width="1"   fill="transparent" stroke-linecap="round" /></g><g c_origin="25,-710" c_para="package`18650*2S`BOM_Manufacturer``BOM_Manufacturer Part`18650-X2S`BOM_Supplier Part``BOM_Supplier``link``Contributor`&#x410;&#x43b;&#x435;&#x43a;&#x441;&#x430;&#x43d;&#x434;&#x440; &#x41a;&#x43e;&#x43d;&#x446;&#x435;&#x432;&#x43e;&#x439;`spicePre`B`spiceSymbolName`18650-X2S-CASE`" c_partid="part_lib_gge55c053f4e22627e4" id="gge55c053f4e22627e4" locked="0" c_shapetype="group" c_etype="pinpart" puuid="645bcdbfe6a040849c4838981f939d8c" uuid="60f9a69f68ff4d4da4c666410e4ee495" convert_to_pcb="yes" add_into_bom="yes" ><g c_partid="part_annotation" id="gge325"   c_shapetype="group"><text c_note="note_name" x="74.28125" y="-723.5" fill="#000080" font-family="Arial" font-size="7pt" font-weight="" font-style="" dominant-baseline="" text-anchor="start"  >18650-X2S-CASE</text></g><g c_partid="part_annotation" id="gge327"   c_shapetype="group"><text c_note="note_pre" x="74.2890625" y="-732.5" fill="#000080" font-family="Arial" font-size="7pt" font-weight="" font-style="" dominant-baseline="" text-anchor="start"  >B1</text></g><g c_partid="part_pin" c_etype="pinpart"  c_show="show"  c_elec="0" c_spicepin="1" c_origin="25,-710" id="gge329" locked="0" c_rotation="180"><text x="47" y="-707" font-family="Verdana" font-size="7pt" fill="#0000FF" text-anchor="start" c_pinname="1" display="none"  >1</text><text x="40" y="-711" font-family="Verdana" font-size="7pt" fill="#0000FF" text-anchor="end" c_pinnumber="1"   >1</text><circle c_pindot="true" class="pindot" cx="25" cy="-710" r="2" fill="none" stroke="none" /><path d="M 25 -710 h 20" fill="none" stroke="#880000" stroke-width="1"/><circle cx="42" cy="-710" r="3" stroke="#880000" fill="none" stroke-width="1" display="none" /><path d="M 45 -707 L 48 -710 L 45 -713" fill="none" stroke="#880000" stroke-width="1"  display="none" /></g><g c_partid="part_pin" c_etype="pinpart"  c_show="show"  c_elec="0" c_spicepin="2" c_origin="135,-710" id="gge336" locked="0" c_rotation="0"><text x="113" y="-707" font-family="Verdana" font-size="7pt" fill="#0000FF" text-anchor="end" c_pinname="2" display="none"  >2</text><text x="120" y="-711" font-family="Verdana" font-size="7pt" fill="#0000FF" text-anchor="start" c_pinnumber="2"   >2</text><circle c_pindot="true" class="pindot" cx="135" cy="-710" r="2" fill="none" stroke="none" /><path d="M 135 -710 h -20" fill="none" stroke="#880000" stroke-width="1"/><circle cx="118" cy="-710" r="3" stroke="#880000" fill="none" stroke-width="1" display="none" /><path d="M 115 -713 L 112 -710 L 115 -707" fill="none" stroke="#880000" stroke-width="1"  display="none" /></g><g c_partid="part_pin" c_etype="pinpart"  c_show="show"  c_elec="0" c_spicepin="3" c_origin="25,-690" id="gge343" locked="0" c_rotation="180"><text x="47" y="-687" font-family="Verdana" font-size="7pt" fill="#0000FF" text-anchor="start" c_pinname="3" display="none"  >3</text><text x="40" y="-691" font-family="Verdana" font-size="7pt" fill="#0000FF" text-anchor="end" c_pinnumber="3"   >3</text><circle c_pindot="true" class="pindot" cx="25" cy="-690" r="2" fill="none" stroke="none" /><path d="M 25 -690 h 20" fill="none" stroke="#880000" stroke-width="1"/><circle cx="42" cy="-690" r="3" stroke="#880000" fill="none" stroke-width="1" display="none" /><path d="M 45 -687 L 48 -690 L 45 -693" fill="none" stroke="#880000" stroke-width="1"  display="none" /></g><g c_partid="part_pin" c_etype="pinpart"  c_show="show"  c_elec="0" c_spicepin="4" c_origin="135,-690" id="gge350" locked="0" c_rotation="0"><text x="113" y="-687" font-family="Verdana" font-size="7pt" fill="#0000FF" text-anchor="end" c_pinname="4" display="none"  >4</text><text x="120" y="-691" font-family="Verdana" font-size="7pt" fill="#0000FF" text-anchor="start" c_pinnumber="4"   >4</text><circle c_pindot="true" class="pindot" cx="135" cy="-690" r="2" fill="none" stroke="none" /><path d="M 135 -690 h -20" fill="none" stroke="#880000" stroke-width="1"/><circle cx="118" cy="-690" r="3" stroke="#880000" fill="none" stroke-width="1" display="none" /><path d="M 115 -693 L 112 -690 L 115 -687" fill="none" stroke="#880000" stroke-width="1"  display="none" /></g><rect id="gge357" locked="0" c_etype="" x="45" y="-720"   width="70" height="40" stroke="#000000" stroke-width="1" fill="none"   /></g><polyline c_etype="wire" c_shapetype="line" points="135 -710 190 -710 190 -690" stroke="#008800" id="gge393" locked="0" stroke-width="1"   fill="none" stroke-linecap="round" /><polyline c_etype="wire" c_shapetype="line" points="25 -690 15 -690 15 -710" stroke="#008800" id="gge395" locked="0" stroke-width="1"   fill="none" stroke-linecap="round" /><g c_partid="part_junction" c_etype="pinpart" c_origin="190,-690" id="gge394" locked="0" c_shapetype="group"><circle c_pindot="true" class="pindot" cx="190" cy="-690" r="2" fill="none" stroke="none"/><circle cx="190" cy="-690" r="2.5" fill="#CC0000" stroke-width="1"/></g><g c_partid="part_junction" c_etype="pinpart" c_origin="15,-710" id="gge396" locked="0" c_shapetype="group"><circle c_pindot="true" class="pindot" cx="15" cy="-710" r="2" fill="none" stroke="none"/><circle cx="15" cy="-710" r="2.5" fill="#CC0000" stroke-width="1"/></g></g></svg>