<svg xmlns="http://www.w3.org/2000/svg" xmlns:xlink="http://www.w3.org/1999/xlink" width="332" height="628" viewBox="270 -625.5 166 314"><title>wind-vane</title><style type="text/css">
path, polyline, polygon {stroke-linejoin:round;}
rect, circle, ellipse, polyline, line, polygon, path {shape-rendering:crispEdges;}
</style>
<rect x="270" y="-625.5" width="166" height="314" fill="#FFFFFF" stroke="none"/><g xmlns="http://www.w3.org/2000/svg" id="g1" c_spiceCmd="null" c_para="Prefix Start`1`" importFlag="0" c_portOfADImportHack="" c_transformList=""><g c_partid="part_netLabel_gnD" c_etype="pinpart" c_origin="300,-350" id="gge79" locked="0" c_shapetype="group" c_rotation="0"><circle c_pindot="true" class="pindot" cx="300" cy="-350" r="2" fill="none" stroke="none" /><g c_partid="part_annotation" id="flag_gge5" c_shapetype="group" ><text x="287" y="-324" font-family="Times New Roman" font-size="9pt" fill="#000000" text-anchor="start" c_note="note_netflag" >GND</text></g><polyline points="300 -340 300 -350" stroke="#000000" id="gge83" locked="0" stroke-width="1"   fill="transparent" stroke-linecap="round" /><polyline points="291 -340 309 -340" stroke="#000000" id="gge84" locked="0" stroke-width="1"   fill="transparent" stroke-linecap="round" /><polyline points="294 -338 306 -338" stroke="#000000" id="gge85" locked="0" stroke-width="1"   fill="transparent" stroke-linecap="round" /><polyline points="297 -336 303 -336" stroke="#000000" id="gge86" locked="0" stroke-width="1"   fill="transparent" stroke-linecap="round" /><polyline points="299 -334 301 -334" stroke="#000000" id="gge87" locked="0" stroke-width="1"   fill="transparent" stroke-linecap="round" /></g><g c_origin="320,-550" c_para="package`RJ11-TH_C11362`BOM_Supplier`LCSC`BOM_Supplier Part`C11362`BOM_Manufacturer`Made in China`BOM_Manufacturer Part`-`Contributor`LCSC`spicePre`R`spiceSymbolName`RJ11_C11362`" c_partid="part_lib_gge4c186377a38c8d58" id="gge4c186377a38c8d58" locked="0" c_shapetype="group" c_etype="pinpart" puuid="8f05d7c6d5c541e0910cb6c9f0baf98e" uuid="16fe42ac62e444489d9c532f05b9d7e7" convert_to_pcb="yes" add_into_bom="yes" ><g c_partid="part_annotation" id="gge496"   c_shapetype="group"><text c_note="note_name" x="290" y="-600" fill="#000080" font-family="Arial" font-size="7pt" font-weight="" font-style="" dominant-baseline="" text-anchor="start"  >Wind vane</text></g><g c_partid="part_annotation" id="gge498"   c_shapetype="group"><text c_note="note_pre" x="306.703125" y="-607" fill="#000080" font-family="Arial" font-size="7pt" font-weight="" font-style="" dominant-baseline="" text-anchor="start"  >RJ11</text></g><rect id="gge500" locked="0" c_etype="" x="280" y="-595"   width="70" height="75" stroke="#8D2323" stroke-width="1" fill="none"   /><polyline points="300 -575 300 -570 300 -570" stroke="#8D2323" id="gge501" locked="0" stroke-width="1"   fill="none" stroke-linecap="round" /><polyline points="305 -575 305 -570 305 -570" stroke="#8D2323" id="gge502" locked="0" stroke-width="1"   fill="none" stroke-linecap="round" /><polyline points="310 -575 310 -570 310 -570" stroke="#8D2323" id="gge503" locked="0" stroke-width="1"   fill="none" stroke-linecap="round" /><polyline points="320 -575 320 -570 320 -570" stroke="#8D2323" id="gge504" locked="0" stroke-width="1"   fill="none" stroke-linecap="round" /><polyline points="290 -575 340 -575 340 -535 330 -535 330 -530 325 -530 325 -530 325 -525 305 -525 305 -530 300 -530 300 -535 290 -535 290 -575 290 -570" stroke="#880000" id="gge505" locked="0" stroke-width="1"   fill="none" stroke-linecap="round" /><g c_partid="part_pin" c_etype="pinpart"  c_show="show"  c_elec="0" c_spicepin="1" c_origin="300,-500" id="gge506" locked="0" c_rotation="270"><text x="303" y="-522" font-family="Verdana" font-size="7pt" fill="#0000FF" text-anchor="start" c_pinname="1" display="none" transform="rotate(270,303,-522)" >1</text><text x="299" y="-515" font-family="Verdana" font-size="7pt" fill="#0000FF" text-anchor="end" c_pinnumber="1"  transform="rotate(270,299,-515)" >1</text><circle c_pindot="true" class="pindot" cx="300" cy="-500" r="2" fill="none" stroke="none" /><path d="M 300 -500 v -20" fill="none" stroke="#880000" stroke-width="1"/><circle cx="300" cy="-517" r="3" stroke="#880000" fill="none" stroke-width="1" display="none" /><path d="M 303 -520 L 300 -523 L 297 -520" fill="none" stroke="#880000" stroke-width="1"  display="none" /></g><g c_partid="part_pin" c_etype="pinpart"  c_show="show"  c_elec="0" c_spicepin="2" c_origin="310,-500" id="gge513" locked="0" c_rotation="270"><text x="313" y="-522" font-family="Verdana" font-size="7pt" fill="#0000FF" text-anchor="start" c_pinname="2" display="none" transform="rotate(270,313,-522)" >2</text><text x="309" y="-515" font-family="Verdana" font-size="7pt" fill="#0000FF" text-anchor="end" c_pinnumber="2"  transform="rotate(270,309,-515)" >2</text><circle c_pindot="true" class="pindot" cx="310" cy="-500" r="2" fill="none" stroke="none" /><path d="M 310 -500 v -20" fill="none" stroke="#880000" stroke-width="1"/><circle cx="310" cy="-517" r="3" stroke="#880000" fill="none" stroke-width="1" display="none" /><path d="M 313 -520 L 310 -523 L 307 -520" fill="none" stroke="#880000" stroke-width="1"  display="none" /></g><g c_partid="part_pin" c_etype="pinpart"  c_show="show"  c_elec="0" c_spicepin="3" c_origin="320,-500" id="gge520" locked="0" c_rotation="270"><text x="323" y="-522" font-family="Verdana" font-size="7pt" fill="#0000FF" text-anchor="start" c_pinname="3" display="none" transform="rotate(270,323,-522)" >3</text><text x="319" y="-515" font-family="Verdana" font-size="7pt" fill="#0000FF" text-anchor="end" c_pinnumber="3"  transform="rotate(270,319,-515)" >3</text><circle c_pindot="true" class="pindot" cx="320" cy="-500" r="2" fill="none" stroke="none" /><path d="M 320 -500 v -20" fill="none" stroke="#880000" stroke-width="1"/><circle cx="320" cy="-517" r="3" stroke="#880000" fill="none" stroke-width="1" display="none" /><path d="M 323 -520 L 320 -523 L 317 -520" fill="none" stroke="#880000" stroke-width="1"  display="none" /></g><g c_partid="part_pin" c_etype="pinpart"  c_show="show"  c_elec="0" c_spicepin="4" c_origin="330,-500" id="gge527" locked="0" c_rotation="270"><text x="333" y="-522" font-family="Verdana" font-size="7pt" fill="#0000FF" text-anchor="start" c_pinname="4" display="none" transform="rotate(270,333,-522)" >4</text><text x="329" y="-515" font-family="Verdana" font-size="7pt" fill="#0000FF" text-anchor="end" c_pinnumber="4"  transform="rotate(270,329,-515)" >4</text><circle c_pindot="true" class="pindot" cx="330" cy="-500" r="2" fill="none" stroke="none" /><path d="M 330 -500 v -20" fill="none" stroke="#880000" stroke-width="1"/><circle cx="330" cy="-517" r="3" stroke="#880000" fill="none" stroke-width="1" display="none" /><path d="M 333 -520 L 330 -523 L 327 -520" fill="none" stroke="#880000" stroke-width="1"  display="none" /></g><polyline points="325 -575 325 -570 325 -570" stroke="#8D2323" id="gge534" locked="0" stroke-width="1"   fill="none" stroke-linecap="round" /><polyline points="330 -575 330 -570 330 -570" stroke="#8D2323" id="gge535" locked="0" stroke-width="1"   fill="none" stroke-linecap="round" /></g><polyline c_etype="wire" c_shapetype="line" points="300 -500 300 -350" stroke="#008800" id="gge578" locked="0" stroke-width="1"   fill="none" stroke-linecap="round" /><polyline c_etype="wire" c_shapetype="line" points="330 -385 330 -500" stroke="#008800" id="gge595" locked="0" stroke-width="1"   fill="none" stroke-linecap="round" /><g c_origin="370,-455" c_para="package`R0603`nameAlias`Value(&#x3a9;)`BOM_Supplier Part``BOM_Supplier``Contributor`LCEDA_Lib`spicePre`R`spiceSymbolName`R_0603_US`BOM_Manufacturer Part``" c_partid="part_lib_gge9fdfbcac91d42522" id="gge9fdfbcac91d42522" locked="0" c_shapetype="group" c_etype="pinpart" puuid="1bf59dff03ec4233aa077dc7cf0e92a1" uuid="b0248eb51e084227889f2cb84eab79c4" convert_to_pcb="yes" add_into_bom="yes" ><g c_partid="part_annotation" id="gge596"   c_shapetype="group"><text c_note="note_name" x="362.3984375" y="-461.6640625" fill="#000080" font-family="Arial" font-size="7pt" font-weight="" font-style="" dominant-baseline="" text-anchor="start"  >10k</text></g><g c_partid="part_annotation" id="gge598"   c_shapetype="group"><text c_note="note_pre" x="364.03125" y="-441.6640625" fill="#000080" font-family="Arial" font-size="7pt" font-weight="" font-style="" dominant-baseline="" text-anchor="start"  >R4</text></g><polyline points="385 -455 382 -450" stroke="#A00000" id="gge600" locked="0" stroke-width="1"   fill="none" stroke-linecap="round" /><polyline points="377 -460 372 -450" stroke="#A00000" id="gge601" locked="0" stroke-width="1"   fill="none" stroke-linecap="round" /><polyline points="382 -450 377 -460" stroke="#A00000" id="gge602" locked="0" stroke-width="1"   fill="none" stroke-linecap="round" /><g c_partid="part_pin" c_etype="pinpart"  c_show="show"  c_elec="0" c_spicepin="2" c_origin="390,-455" id="gge603" locked="0" c_rotation="0"><text x="381" y="-455" font-family="Verdana" font-size="7pt" fill="#800" text-anchor="end" c_pinname="2" display="none"  >2</text><text x="389" y="-459" font-family="Verdana" font-size="7pt" fill="#800" text-anchor="start" c_pinnumber="2" display="none"  >2</text><circle c_pindot="true" class="pindot" cx="390" cy="-455" r="2" fill="none" stroke="none" /><path d="M 390 -455 h -5" fill="none" stroke="#800" stroke-width="1"/><circle cx="388" cy="-455" r="3" stroke="#800" fill="none" stroke-width="1" display="none" /><path d="M 385 -458 L 382 -455 L 385 -452" fill="none" stroke="#800" stroke-width="1"  display="none" /></g><polyline points="363 -450 358 -460" stroke="#A00000" id="gge610" locked="0" stroke-width="1"   fill="none" stroke-linecap="round" /><polyline points="372 -450 368 -460" stroke="#A00000" id="gge611" locked="0" stroke-width="1"   fill="none" stroke-linecap="round" /><polyline points="368 -460 363 -450" stroke="#A00000" id="gge612" locked="0" stroke-width="1"   fill="none" stroke-linecap="round" /><polyline points="358 -460 355 -455" stroke="#A00000" id="gge613" locked="0" stroke-width="1"   fill="none" stroke-linecap="round" /><g c_partid="part_pin" c_etype="pinpart"  c_show="show"  c_elec="0" c_spicepin="1" c_origin="350,-455" id="gge614" locked="0" c_rotation="180"><text x="359" y="-455" font-family="Verdana" font-size="7pt" fill="#800" text-anchor="start" c_pinname="1" display="none"  >1</text><text x="351" y="-459" font-family="Verdana" font-size="7pt" fill="#800" text-anchor="end" c_pinnumber="1" display="none"  >1</text><circle c_pindot="true" class="pindot" cx="350" cy="-455" r="2" fill="none" stroke="none" /><path d="M 350 -455 h 5" fill="none" stroke="#800" stroke-width="1"/><circle cx="352" cy="-455" r="3" stroke="#800" fill="none" stroke-width="1" display="none" /><path d="M 355 -452 L 358 -455 L 355 -458" fill="none" stroke="#800" stroke-width="1"  display="none" /></g></g><polyline c_etype="wire" c_shapetype="line" points="350 -455 330 -455" stroke="#008800" id="gge648" locked="0" stroke-width="1"   fill="none" stroke-linecap="round" /><polyline c_etype="wire" c_shapetype="line" points="390 -455 420 -455 420 -515" stroke="#008800" id="gge650" locked="0" stroke-width="1"   fill="none" stroke-linecap="round" /><g c_partid="part_netLabel_netPort" c_etype="pinpart" c_origin="420,-515" id="gge652" locked="0" c_shapetype="group" c_rotation="270"><circle c_pindot="true" class="pindot" cx="420" cy="-515" r="2" fill="none" stroke="none" /><g c_partid="part_annotation" id="flag_gge6" c_shapetype="group" ><text x="416.5" y="-558.07" font-family="Times New Roman" font-size="8pt" fill="#0000FF" text-anchor="start" c_note="note_netflag" transform="rotate(90,416.5,-558.07)">3V3</text></g><polyline points="420 -515 415 -520 415 -535 425 -535 425 -520 420 -515" stroke="#0000FF" id="gge656" locked="0" stroke-width="1"   fill="transparent" stroke-linecap="round" /></g><g c_partid="part_netLabel_netPort" c_etype="pinpart" c_origin="330,-385" id="gge657" locked="0" c_shapetype="group" c_rotation="180"><circle c_pindot="true" class="pindot" cx="330" cy="-385" r="2" fill="none" stroke="none" /><g c_partid="part_annotation" id="flag_gge7" c_shapetype="group" ><text x="351.5" y="-383.02" font-family="Times New Roman" font-size="8pt" fill="#0000FF" text-anchor="start" c_note="note_netflag" >GPIO32 analog</text></g><polyline points="330 -385 335 -390 350 -390 350 -380 335 -380 330 -385" stroke="#0000FF" id="gge661" locked="0" stroke-width="1"   fill="transparent" stroke-linecap="round" /></g><g c_partid="part_junction" c_etype="pinpart" c_origin="330,-455" id="gge664" locked="0" c_shapetype="group"><circle c_pindot="true" class="pindot" cx="330" cy="-455" r="2" fill="none" stroke="none"/><circle cx="330" cy="-455" r="2.5" fill="#CC0000" stroke-width="1"/></g></g></svg>